<?xml version="1.0" encoding="utf-8"?>
<!-- Generator: Adobe Illustrator 26.1.0, SVG Export Plug-In . SVG Version: 6.00 Build 0)  -->
<svg version="1.1" id="Shape_3_00000005976323461421508220000000644967472114173340_"
	 xmlns="http://www.w3.org/2000/svg" xmlns:xlink="http://www.w3.org/1999/xlink" x="0px" y="0px" viewBox="0 0 20.5 18.5"
	 style="enable-background:new 0 0 20.5 18.5;" xml:space="preserve">
<style type="text/css">
	.st0{fill-rule:evenodd;clip-rule:evenodd;fill:#FFFFFF;}
</style>
<g id="Shape_3">
	<g>
		<path class="st0" d="M19.47,2.25L18.4,1.07c-0.43-0.47-1.02-0.75-1.66-0.78c-0.63-0.03-1.25,0.2-1.72,0.62L1.93,12.86
			c-0.09,0.09-0.16,0.19-0.21,0.31h0l-1.49,4.04c-0.09,0.24-0.05,0.52,0.1,0.73c0.15,0.21,0.39,0.34,0.65,0.34h0.09l4.71-0.52
			c0.17-0.02,0.32-0.09,0.45-0.2h0L19.31,5.62c0.47-0.43,0.75-1.02,0.78-1.66S19.9,2.72,19.47,2.25z M18.22,4.44L18.22,4.44
			L5.32,16.21l-3.18,0.35l1.01-2.67L16.1,2.1c0.16-0.14,0.36-0.22,0.57-0.21c0.21,0.01,0.41,0.1,0.55,0.26l1.05,1.17
			c0.14,0.16,0.21,0.36,0.2,0.57S18.38,4.3,18.22,4.44z"/>
	</g>
</g>
</svg>
