<?xml version="1.0" encoding="utf-8"?>
<!-- Generator: Adobe Illustrator 26.1.0, SVG Export Plug-In . SVG Version: 6.00 Build 0)  -->
<svg version="1.1" id="Shape_2_00000172427345584355496900000010047728439084533172_"
	 xmlns="http://www.w3.org/2000/svg" xmlns:xlink="http://www.w3.org/1999/xlink" x="0px" y="0px" viewBox="0 0 18.5 19"
	 style="enable-background:new 0 0 18.5 19;" xml:space="preserve">
<style type="text/css">
	.st0{fill-rule:evenodd;clip-rule:evenodd;fill:#FFFFFF;}
</style>
<g id="Shape_2">
	<g>
		<path class="st0" d="M18.06,9.42c0-0.01,0-0.01,0-0.02c0-0.02-0.01-0.04-0.01-0.06c0-0.01,0-0.01-0.01-0.02
			c0-0.02-0.01-0.04-0.02-0.06c0-0.01-0.01-0.02-0.01-0.02C18.01,9.22,18,9.2,17.99,9.18c0-0.01-0.01-0.02-0.01-0.02
			c-0.01-0.02-0.02-0.03-0.03-0.05c0-0.01-0.01-0.02-0.01-0.02c-0.01-0.02-0.02-0.03-0.03-0.04c-0.01-0.01-0.01-0.02-0.02-0.02
			C17.88,9,17.87,8.99,17.85,8.97c0,0-0.01-0.01-0.01-0.01c-0.02-0.02-0.04-0.04-0.06-0.05c0,0,0,0,0,0l-2.56-2.09
			c-0.33-0.27-0.81-0.22-1.08,0.11c-0.27,0.33-0.22,0.81,0.11,1.08l0.89,0.72H9.8V3.39l0.72,0.89c0.15,0.19,0.37,0.28,0.6,0.28
			c0.17,0,0.34-0.06,0.48-0.17c0.33-0.27,0.38-0.75,0.11-1.08L9.63,0.74c0,0,0,0,0,0C9.61,0.71,9.6,0.7,9.58,0.68
			C9.57,0.67,9.57,0.67,9.56,0.66C9.55,0.65,9.53,0.64,9.52,0.62C9.51,0.62,9.5,0.61,9.49,0.61C9.48,0.6,9.46,0.59,9.45,0.58
			C9.44,0.57,9.43,0.57,9.43,0.56C9.41,0.55,9.39,0.54,9.38,0.54c-0.01,0-0.02-0.01-0.02-0.01C9.34,0.52,9.32,0.51,9.3,0.5
			C9.3,0.5,9.29,0.5,9.28,0.49C9.26,0.49,9.24,0.48,9.22,0.48c-0.01,0-0.01,0-0.02-0.01c-0.02,0-0.04-0.01-0.06-0.01
			c-0.01,0-0.01,0-0.02,0c-0.03,0-0.05,0-0.08,0c-0.03,0-0.06,0-0.08,0c-0.01,0-0.01,0-0.02,0c-0.02,0-0.04,0.01-0.06,0.01
			c-0.01,0-0.01,0-0.02,0.01c-0.02,0-0.04,0.01-0.06,0.02C8.79,0.5,8.78,0.5,8.77,0.5C8.75,0.51,8.74,0.52,8.72,0.52
			c-0.01,0-0.02,0.01-0.02,0.01C8.68,0.54,8.66,0.55,8.65,0.56c-0.01,0-0.02,0.01-0.02,0.02C8.61,0.59,8.59,0.6,8.58,0.61
			C8.57,0.61,8.56,0.62,8.56,0.62C8.54,0.64,8.53,0.65,8.51,0.66c-0.01,0-0.01,0.01-0.02,0.01C8.48,0.7,8.46,0.71,8.44,0.74
			c0,0,0,0,0,0L6.36,3.31C6.09,3.64,6.14,4.12,6.47,4.39C6.8,4.66,7.28,4.61,7.55,4.28l0.72-0.89v5.34H2.94l0.89-0.72
			C4.15,7.74,4.2,7.26,3.94,6.93C3.67,6.6,3.19,6.55,2.86,6.82L0.29,8.9c0,0,0,0,0,0C0.27,8.92,0.25,8.94,0.23,8.96
			c0,0-0.01,0.01-0.01,0.01C0.2,8.99,0.19,9,0.18,9.02C0.17,9.03,0.17,9.03,0.16,9.04C0.15,9.06,0.14,9.07,0.13,9.09
			c0,0.01-0.01,0.02-0.01,0.02C0.11,9.13,0.1,9.14,0.09,9.16c0,0.01-0.01,0.02-0.01,0.02C0.07,9.2,0.06,9.22,0.06,9.23
			c0,0.01-0.01,0.02-0.01,0.02C0.04,9.27,0.04,9.29,0.03,9.31c0,0.01,0,0.01-0.01,0.02c0,0.02-0.01,0.04-0.01,0.06
			c0,0.01,0,0.01,0,0.02c0,0.03,0,0.05,0,0.08c0,0.03,0,0.06,0,0.08c0,0.01,0,0.01,0,0.02c0,0.02,0.01,0.04,0.01,0.06
			c0,0.01,0,0.01,0.01,0.02c0,0.02,0.01,0.04,0.02,0.06c0,0.01,0.01,0.02,0.01,0.02C0.06,9.78,0.07,9.8,0.08,9.82
			c0,0.01,0.01,0.02,0.01,0.02C0.1,9.86,0.11,9.88,0.12,9.89c0,0.01,0.01,0.02,0.01,0.02c0.01,0.01,0.02,0.03,0.03,0.04
			c0.01,0.01,0.01,0.02,0.02,0.02C0.19,10,0.2,10.01,0.22,10.02c0,0.01,0.01,0.01,0.01,0.02c0.02,0.02,0.04,0.04,0.06,0.05
			c0,0,0,0,0,0l2.56,2.09C3,12.3,3.17,12.35,3.34,12.35c0.22,0,0.44-0.1,0.6-0.28c0.27-0.33,0.22-0.81-0.11-1.08l-0.89-0.72h5.33
			v5.34l-0.72-0.89c-0.27-0.33-0.75-0.38-1.08-0.11c-0.33,0.27-0.38,0.75-0.11,1.08l2.08,2.57c0,0,0,0,0,0
			c0.02,0.02,0.04,0.04,0.05,0.06c0,0,0.01,0.01,0.01,0.01c0.01,0.01,0.03,0.03,0.05,0.04c0.01,0.01,0.01,0.01,0.02,0.02
			c0.01,0.01,0.03,0.02,0.04,0.03c0.01,0,0.02,0.01,0.02,0.01c0.02,0.01,0.03,0.02,0.05,0.03c0.01,0,0.02,0.01,0.02,0.01
			c0.02,0.01,0.03,0.01,0.05,0.02c0.01,0,0.02,0.01,0.02,0.01c0.02,0.01,0.04,0.01,0.06,0.02c0.01,0,0.01,0,0.02,0.01
			c0.02,0,0.04,0.01,0.06,0.01c0.01,0,0.01,0,0.02,0c0.03,0,0.05,0,0.08,0c0.03,0,0.06,0,0.08,0c0.01,0,0.01,0,0.02,0
			c0.02,0,0.04-0.01,0.06-0.01c0.01,0,0.01,0,0.02-0.01c0.02,0,0.04-0.01,0.06-0.02c0.01,0,0.02-0.01,0.02-0.01
			c0.02-0.01,0.04-0.01,0.05-0.02c0.01,0,0.02-0.01,0.02-0.01c0.02-0.01,0.03-0.02,0.05-0.03c0.01,0,0.02-0.01,0.02-0.01
			c0.02-0.01,0.03-0.02,0.04-0.03c0.01-0.01,0.01-0.01,0.02-0.02c0.02-0.01,0.03-0.03,0.05-0.04c0,0,0.01-0.01,0.01-0.01
			c0.02-0.02,0.04-0.04,0.05-0.06c0,0,0,0,0,0l2.08-2.57c0.27-0.33,0.22-0.81-0.11-1.08h0c-0.33-0.27-0.81-0.22-1.08,0.11L9.8,15.61
			v-5.34h5.33l-0.89,0.72c-0.33,0.27-0.38,0.75-0.11,1.08c0.15,0.19,0.37,0.28,0.6,0.28c0.17,0,0.34-0.06,0.48-0.17l2.56-2.09
			c0,0,0,0,0,0c0.02-0.02,0.04-0.03,0.06-0.05c0.01-0.01,0.01-0.01,0.02-0.02c0.01-0.01,0.03-0.03,0.04-0.04
			c0.01-0.01,0.01-0.02,0.02-0.02c0.01-0.01,0.02-0.03,0.03-0.04c0.01-0.01,0.01-0.02,0.01-0.02c0.01-0.02,0.02-0.03,0.03-0.05
			c0-0.01,0.01-0.02,0.01-0.02C18,9.8,18.01,9.78,18.01,9.77c0-0.01,0.01-0.02,0.01-0.02c0.01-0.02,0.01-0.04,0.02-0.06
			c0-0.01,0-0.01,0.01-0.02c0-0.02,0.01-0.04,0.01-0.06c0-0.01,0-0.01,0-0.02c0-0.03,0-0.05,0-0.08
			C18.06,9.47,18.06,9.44,18.06,9.42z"/>
	</g>
</g>
</svg>
