<?xml version="1.0" encoding="utf-8"?>
<!-- Generator: Adobe Illustrator 26.1.0, SVG Export Plug-In . SVG Version: 6.00 Build 0)  -->
<svg version="1.1" xmlns="http://www.w3.org/2000/svg" xmlns:xlink="http://www.w3.org/1999/xlink" x="0px" y="0px"
	 viewBox="0 0 25 22.5" style="enable-background:new 0 0 25 22.5;" xml:space="preserve">
<style type="text/css">
	.st0{enable-background:new    ;}
	.st1{fill-rule:evenodd;clip-rule:evenodd;fill:#FFFFFF;}
</style>
<g id="Shape_3_copy_00000025413004035327489720000010757966501976255114_" class="st0">
	<g id="Shape_3_copy">
		<g>
			<path class="st1" d="M16,13.08V19c0,1.38-0.62,2-2,2H3.5c-1.38,0-2-0.62-2-2V7.5H5c1.38,0,2.5-1.12,2.5-2.5V1.5H14
				c1.38,0,2,0.62,2,2v3.54l1.5-1.37V2.5C17.5,1.12,16.38,0,15,0H7.91L7.27,0.64c-0.04-0.06-0.1-0.09-0.15-0.14L0.51,7.12
				c0.05,0.05,0.08,0.11,0.14,0.15L0,7.91V20c0,1.38,1.12,2.5,2.5,2.5H15c1.38,0,2.5-1.12,2.5-2.5v-8.29L16,13.08z"/>
		</g>
	</g>
</g>
<g id="Shape_3_copy_2_00000127007715915588664220000001290822071869089683_" class="st0">
	<g id="Shape_3_copy_2">
		<g>
			<path class="st1" d="M24.17,3.36l-0.75-0.82c-0.3-0.33-0.72-0.52-1.16-0.54c-0.44-0.02-0.88,0.14-1.2,0.44l-9.16,8.36
				c-0.06,0.06-0.11,0.13-0.14,0.22h0l-1.04,2.83c-0.06,0.17-0.04,0.36,0.07,0.51c0.1,0.15,0.27,0.24,0.46,0.24h0.06l3.29-0.36
				c0.12-0.01,0.23-0.06,0.31-0.14h0l9.16-8.36c0.33-0.3,0.52-0.72,0.55-1.16C24.63,4.12,24.47,3.69,24.17,3.36z M23.3,4.89
				L23.3,4.89l-9.03,8.24l-2.23,0.25l0.71-1.87l9.07-8.25c0.11-0.1,0.25-0.15,0.4-0.15c0.15,0.01,0.29,0.07,0.39,0.18l0.74,0.82
				c0.1,0.11,0.15,0.25,0.14,0.4C23.47,4.66,23.41,4.79,23.3,4.89z"/>
		</g>
	</g>
</g>
</svg>
