<?xml version="1.0" encoding="utf-8"?>
<!-- Generator: Adobe Illustrator 26.1.0, SVG Export Plug-In . SVG Version: 6.00 Build 0)  -->
<svg version="1.1" id="Shape_5_copy_00000142892332490567030390000007843599219916489391_"
	 xmlns="http://www.w3.org/2000/svg" xmlns:xlink="http://www.w3.org/1999/xlink" x="0px" y="0px" viewBox="0 0 13.5 14"
	 style="enable-background:new 0 0 13.5 14;" xml:space="preserve">
<style type="text/css">
	.st0{fill-rule:evenodd;clip-rule:evenodd;fill:#FFFFFF;}
</style>
<g id="Shape_5_copy">
	<g>
		<path class="st0" d="M13.23,0.32c-0.16-0.16-0.37-0.25-0.59-0.25H9.28c-0.3,0-0.58,0.16-0.73,0.42c-0.15,0.26-0.15,0.58,0,0.84
			C8.7,1.6,8.98,1.76,9.28,1.76h1.33L7.84,4.52C7.68,4.68,7.6,4.89,7.6,5.12c0,0.22,0.09,0.44,0.25,0.6s0.37,0.25,0.6,0.24l0,0
			c0.22,0,0.43-0.09,0.59-0.25l2.77-2.77v1.34c0,0.22,0.09,0.44,0.25,0.59c0.16,0.16,0.37,0.25,0.59,0.25
			c0.22,0,0.44-0.09,0.59-0.25c0.16-0.16,0.25-0.37,0.25-0.59V0.92C13.48,0.69,13.39,0.48,13.23,0.32z M5.27,7.71
			C5,7.63,4.7,7.7,4.48,7.88l0,0l-2.76,2.76V9.32c0-0.3-0.16-0.58-0.42-0.73c-0.26-0.15-0.58-0.15-0.84,0
			C0.2,8.74,0.04,9.02,0.04,9.32v3.34c0,0.01,0,0.02,0,0.02c0,0.22,0.09,0.44,0.25,0.6c0.16,0.16,0.37,0.24,0.6,0.24c0,0,0,0,0,0
			h3.36c0.3,0,0.58-0.16,0.73-0.42c0.15-0.26,0.15-0.58,0-0.84C4.82,12,4.54,11.84,4.24,11.84H2.9l2.77-2.77
			c0.19-0.22,0.25-0.51,0.17-0.78C5.75,8.01,5.54,7.79,5.27,7.71z"/>
	</g>
</g>
</svg>
