<?xml version="1.0" encoding="utf-8"?>
<!-- Generator: Adobe Illustrator 26.1.0, SVG Export Plug-In . SVG Version: 6.00 Build 0)  -->
<svg version="1.1" id="Shape_6_00000070083837131923923540000009438191819849770161_"
	 xmlns="http://www.w3.org/2000/svg" xmlns:xlink="http://www.w3.org/1999/xlink" x="0px" y="0px" viewBox="0 0 15 15"
	 style="enable-background:new 0 0 15 15;" xml:space="preserve">
<style type="text/css">
	.st0{fill-rule:evenodd;clip-rule:evenodd;fill:#FFFFFF;}
</style>
<g id="Shape_6">
	<g>
		<path class="st0" d="M14.34,2.27l-1.61-1.61c-0.26-0.26-0.61-0.4-0.98-0.4H1.64l0,0c-0.76,0-1.38,0.62-1.38,1.38v11.72
			c0,0.76,0.62,1.38,1.38,1.38h11.72c0.76,0,1.38-0.62,1.38-1.38V3.24C14.74,2.88,14.6,2.53,14.34,2.27z M5.09,1.98
			c0-0.19,0.15-0.34,0.34-0.34h4.14c0.19,0,0.34,0.15,0.34,0.34v1.72c0,0.19-0.15,0.34-0.34,0.34H5.43c-0.19,0-0.34-0.15-0.34-0.34
			V1.98z M13.36,13.02c0,0.19-0.15,0.34-0.34,0.34H1.98c-0.19,0-0.34-0.15-0.34-0.34V1.98c0-0.19,0.15-0.34,0.34-0.34h1.38
			c0.19,0,0.34,0.15,0.34,0.34V4.4c0,0.57,0.46,1.03,1.03,1.03h5.52c0.57,0,1.03-0.46,1.03-1.03V1.87c0-0.13,0.1-0.23,0.23-0.23
			h0.09c0.09,0,0.18,0.04,0.24,0.1l1.4,1.4c0.06,0.06,0.1,0.15,0.1,0.24V13.02z"/>
	</g>
</g>
</svg>
